# xmcd
#
# Track frame offsets:
# 150
# 11885
# 23737
# 35880
# 45612
# 57557
# 68147
# 79425
# 90140
# 100897
# 111000
# 121675
#
# Disc length: 1769 seconds
#
#
# Revision: 0
# Processed by: cddbd v1.4PL0 Copyright (c) Steve Scherf et al.
# Submitted via: FreeRIP 2.00 
#
DISCID=9806e70c
DTITLE=Tennessee Ernie Ford - 36 All Time Greatest Hits Disk2
DYEAR=1999
DGENRE=Country
TTITLE0=Shot-Gun Boogie
TTITLE1=I'll Never Be Free
TTITLE2=Ain't Nobody's Business But My Own
TTITLE3=Anticipation Blues
TTITLE4=Smokey Mountain Boogie
TTITLE5=Tailor Made Woman
TTITLE6=Blackberry Boogie
TTITLE7=Hey, Mr. Cotton Picker
TTITLE8=Kiss Me Big
TTITLE9=She's My Baby
TTITLE10=Milk 'Em In The Mornin' Blues
TTITLE11=Happen No More
EXTD=Ripped By Itaot...
EXTT0=
EXTT1=
EXTT2=
EXTT3=
EXTT4=
EXTT5=
EXTT6=
EXTT7=
EXTT8=
EXTT9=
EXTT10=
EXTT11=
PLAYORDER=
